<svg width="794" height="52" viewBox="0 0 794 52" fill="none" xmlns="http://www.w3.org/2000/svg">
<path fill-rule="evenodd" clip-rule="evenodd" d="M42.6012 11.8131H56.3113V51.1502H49.2028V17.9283H47.2848L32.2174 51.1502H24.0385L8.97112 17.9283H7.11135V51.1502H0V11.8131H13.7145L28.2707 44.0752L42.6012 11.8131Z" fill="currentColor"/>
<path fill-rule="evenodd" clip-rule="evenodd" d="M110.143 51.1507H102.862L99.3626 41.1904H76.795L73.2968 51.1507H66.0748L79.8431 11.8135H96.4324L110.143 51.1507ZM84.9782 17.9273L78.9373 35.135H97.2757L91.2391 17.9273H84.9782Z" fill="currentColor"/>
<path fill-rule="evenodd" clip-rule="evenodd" d="M149.978 27.6628V11.8137H157.086V51.1508H149.978V33.7736H127.014V51.1508H119.903V11.8137H127.014V27.6628H149.978Z" fill="currentColor"/>
<path fill-rule="evenodd" clip-rule="evenodd" d="M170.121 51.1507V11.8135H200.645V17.9273H177.285V51.1507H170.121Z" fill="currentColor"/>
<path fill-rule="evenodd" clip-rule="evenodd" d="M247.705 51.1507H240.425L236.925 41.1904H214.357L210.859 51.1507H203.637L217.405 11.8135H233.995L247.705 51.1507ZM222.541 17.9273L216.5 35.135H234.838L228.801 17.9273H222.541Z" fill="currentColor"/>
<path fill-rule="evenodd" clip-rule="evenodd" d="M289.345 29.7011V31.1138C294.838 32.4753 297.582 35.6644 297.582 40.6796C297.582 48.228 290.453 52 276.2 52C268.902 52 263.454 50.954 259.865 48.8606C256.269 46.7627 254.248 43.5094 253.797 39.0946H261.019C261.546 43.6993 266.567 46.0002 276.086 46.0002C285.602 46.0002 290.361 43.9447 290.361 39.8294C290.361 35.7959 285.602 33.7741 276.086 33.7741H267.17V27.7173H276.086C280.563 27.7173 283.824 27.2863 285.877 26.4156C287.926 25.5493 288.949 24.1907 288.949 22.3427C288.949 18.7957 284.661 17.0221 276.086 17.0221C271.609 17.0221 268.251 17.5787 266.012 18.6919C263.774 19.8037 262.523 21.548 262.262 23.9277H255.096C255.509 19.475 257.41 16.2011 260.794 14.1077C264.18 12.0142 269.315 10.9668 276.2 10.9668C289.403 10.9668 296.002 14.5313 296.002 21.6619C296.002 25.8897 293.784 28.5675 289.345 29.7011Z" fill="currentColor"/>
<path fill-rule="evenodd" clip-rule="evenodd" d="M340.748 51.1507H308.755V11.8135H340.352V17.8689H315.866V27.7181H338.434V33.7735H315.866V45.1537H340.748V51.1507Z" fill="currentColor"/>
<path fill-rule="evenodd" clip-rule="evenodd" d="M370.879 11.8131H387.806V51.1502H380.639V38.1338H375.731L359.366 51.1502H349.323L365.799 37.8504C356.921 36.7167 352.485 32.3019 352.485 24.606C352.485 16.0789 358.615 11.8131 370.879 11.8131ZM370.879 32.1325H380.639V17.9283H370.879C366.929 17.9283 364.078 18.4455 362.331 19.4827C360.581 20.5229 359.707 22.2292 359.707 24.606C359.707 27.2867 360.581 29.2107 362.331 30.378C364.078 31.5496 366.929 32.1325 370.879 32.1325Z" fill="currentColor"/>
<path fill-rule="evenodd" clip-rule="evenodd" d="M470.521 10.7535H484.309V50.0907H477.16V16.8688H475.231L460.077 50.0907H451.852L436.698 16.8688H434.828V50.0907H427.676V10.7535H441.469L456.108 43.0156L470.521 10.7535Z" fill="currentColor"/>
<path fill-rule="evenodd" clip-rule="evenodd" d="M538.448 50.091H531.126L527.607 40.1307H504.91L501.392 50.091H494.128L507.976 10.7538H524.66L538.448 50.091ZM513.14 16.8676L507.065 34.0753H525.508L519.437 16.8676H513.14Z" fill="currentColor"/>
<path fill-rule="evenodd" clip-rule="evenodd" d="M579.135 10.7535H591.901V50.0907H584.753V16.9827H582.879L561.034 50.0907H548.264V10.7535H555.416V43.8104H557.345L579.135 10.7535ZM570.057 7.64041C561.772 7.64041 557.629 5.09409 557.629 0H563.133C563.133 2.15188 565.44 3.22563 570.057 3.22563C574.709 3.22563 577.036 2.15188 577.036 0H582.37C582.37 2.60475 581.376 4.52873 579.391 5.77486C577.404 7.01953 574.293 7.64041 570.057 7.64041Z" fill="currentColor"/>
<path fill-rule="evenodd" clip-rule="evenodd" d="M635.255 26.6032V10.7541H642.407V50.0913H635.255V32.7141H612.16V50.0913H605.011V10.7541H612.16V26.6032H635.255Z" fill="currentColor"/>
<path fill-rule="evenodd" clip-rule="evenodd" d="M686.384 10.7535H699.151V50.0907H692.003V16.9827H690.128L668.284 50.0907H655.513V10.7535H662.665V43.8104H664.596L686.384 10.7535Z" fill="currentColor"/>
<path fill-rule="evenodd" clip-rule="evenodd" d="M742.508 26.6032V10.7541H749.657V50.0913H742.508V32.7141H719.413V50.0913H712.261V10.7541H719.413V26.6032H742.508Z" fill="currentColor"/>
<path fill-rule="evenodd" clip-rule="evenodd" d="M762.767 50.091V10.7538H793.465V16.8676H769.971V50.091H762.767Z" fill="currentColor"/>
</svg>
