<svg xmlns="http://www.w3.org/2000/svg" xmlns:xlink="http://www.w3.org/1999/xlink"><symbol id="arrow-left" viewBox="0 0 24 24">
<path d="M3 12L7 16M3 12L7 8M3 12L22 12" stroke="currentColor" stroke-linecap="round"/>
</symbol><symbol id="arrow-right" viewBox="0 0 24 24">
<path d="M21 12L17 8M21 12L17 16M21 12L2 12" stroke="currentColor" stroke-linecap="round"/>
</symbol><symbol id="footer-icon" viewBox="0 0 84 118">
<path fill-rule="evenodd" clip-rule="evenodd" d="M51.7561 68.5421H61.0902V95.2799H56.2506V72.6957H54.9448L44.6866 95.2799H39.1183L28.8601 72.6957H27.5939V95.2799H22.7523V68.5421H32.0894L41.9996 90.4709L51.7561 68.5421Z" fill="white"/>
<path fill-rule="evenodd" clip-rule="evenodd" d="M0 118H84V0H0V118ZM4.8019 113.191H79.1981V4.80897H4.8019V113.191Z" fill="white"/>
</symbol><symbol id="icon-arrow-down" viewBox="0 0 24 24">
<path d="M12 21L16 17M12 21L8 17M12 21L12 2" stroke="currentColor" stroke-linecap="round"/>
</symbol><symbol id="icon-close-modal" viewBox="0 0 20 20">
<path d="M15.4045 15.4045L4.5957 4.5957" stroke="currentColor" stroke-linecap="round"/>
<path d="M15.4045 4.5955L4.5957 15.4043" stroke="currentColor" stroke-linecap="round"/>
</symbol><symbol id="icon-close" viewBox="0 0 20 20"><path d="M.293 18.291a1 1 0 101.414 1.414L10 11.413l8.292 8.292a1 1 0 101.414-1.414l-8.292-8.292 8.292-8.292A1 1 0 1018.291.293L9.999 8.585 1.707.293A1 1 0 10.293 1.707L8.585 10 .293 18.291z"/></symbol><symbol id="icon-download" viewBox="0 0 20 20">
<path d="M9.99984 14.1668L13.3332 10.8335M9.99984 14.1668L6.6665 10.8335M9.99984 14.1668L9.99983 0.833496" stroke="currentColor" stroke-linecap="round"/>
<line x1="5.5" y1="17.8335" x2="14.5" y2="17.8335" stroke="currentColor" stroke-linecap="round"/>
</symbol><symbol id="play-icon" viewBox="0 0 20 20">
<path d="M7.5 4.16669V15.8334L16.6667 10L7.5 4.16669Z" fill="currentColor"/>
</symbol></svg>