<svg width="128" height="40" viewBox="0 0 128 40" fill="none" xmlns="http://www.w3.org/2000/svg">
<path fill-rule="evenodd" clip-rule="evenodd" d="M17.7328 23.23H20.9122V32.2811H19.2637V24.636H18.8189L15.3247 32.2811H13.428L9.93388 24.636H9.5026V32.2811H7.85346V23.23H11.0339L14.4095 30.6532L17.7328 23.23Z" fill="white"/>
<path fill-rule="evenodd" clip-rule="evenodd" d="M0.103516 39.9721H28.7157V0.0275879H0.103516V39.9721ZM1.73915 38.3442H27.0801V1.65549H1.73915V38.3442Z" fill="white"/>
<path fill-rule="evenodd" clip-rule="evenodd" d="M47.8744 7.74513H51.0538V16.7962H49.4053V9.15219H48.9605L45.4663 16.7962H43.5696L40.0755 9.15219H39.6442V16.7962H37.9951V7.74513H41.1755L44.5511 15.1683L47.8744 7.74513Z" fill="white"/>
<path fill-rule="evenodd" clip-rule="evenodd" d="M63.5373 16.7963H61.849L61.0375 14.5046H55.804L54.9928 16.7963H53.3179L56.5108 7.74523H60.3579L63.5373 16.7963ZM57.7017 9.15196L56.3008 13.1113H60.5535L59.1536 9.15196H57.7017Z" fill="white"/>
<path fill-rule="evenodd" clip-rule="evenodd" d="M72.7752 11.392V7.74527H74.4237V16.7964H72.7752V12.798H67.4499V16.7964H65.8008V7.74527H67.4499V11.392H72.7752Z" fill="white"/>
<path fill-rule="evenodd" clip-rule="evenodd" d="M77.4465 16.7963V7.74523H84.525V9.15196H79.1078V16.7963H77.4465Z" fill="white"/>
<path fill-rule="evenodd" clip-rule="evenodd" d="M95.4383 16.7963H93.75L92.9384 14.5046H87.7049L86.8937 16.7963H85.2189L88.4118 7.74523H92.2589L95.4383 16.7963ZM89.6027 9.15196L88.2018 13.1113H92.4545L91.0546 9.15196H89.6027Z" fill="white"/>
<path fill-rule="evenodd" clip-rule="evenodd" d="M105.095 11.861V12.186C106.369 12.4993 107.005 13.2331 107.005 14.387C107.005 16.1239 105.352 16.9918 102.046 16.9918C100.354 16.9918 99.0905 16.7511 98.2583 16.2694C97.4245 15.7867 96.9557 15.0381 96.851 14.0223H98.5258C98.6481 15.0818 99.8126 15.6113 102.02 15.6113C104.227 15.6113 105.33 15.1383 105.33 14.1914C105.33 13.2634 104.227 12.7981 102.02 12.7981H99.9524V11.4045H102.02C103.058 11.4045 103.814 11.3054 104.291 11.105C104.766 10.9057 105.003 10.5931 105.003 10.1679C105.003 9.35176 104.009 8.94369 102.02 8.94369C100.982 8.94369 100.203 9.07176 99.6839 9.32789C99.1648 9.58369 98.8747 9.98503 98.8142 10.5326H97.1523C97.2482 9.50806 97.6889 8.75478 98.4738 8.2731C99.259 7.79142 100.45 7.55041 102.046 7.55041C105.108 7.55041 106.638 8.37058 106.638 10.0113C106.638 10.984 106.124 11.6002 105.095 11.861Z" fill="white"/>
<path fill-rule="evenodd" clip-rule="evenodd" d="M117.015 16.7963H109.596V7.74523H116.923V9.13851H111.245V11.4047H116.479V12.798H111.245V15.4165H117.015V16.7963Z" fill="white"/>
<path fill-rule="evenodd" clip-rule="evenodd" d="M124.003 7.74513H127.928V16.7962H126.266V13.8013H125.128L121.333 16.7962H119.004L122.825 13.7361C120.766 13.4752 119.737 12.4594 119.737 10.6887C119.737 8.72665 121.159 7.74513 124.003 7.74513ZM124.003 12.4204H126.266V9.15219H124.003C123.087 9.15219 122.425 9.27118 122.02 9.50984C121.615 9.74917 121.412 10.1418 121.412 10.6887C121.412 11.3055 121.615 11.7482 122.02 12.0167C122.425 12.2863 123.087 12.4204 124.003 12.4204Z" fill="white"/>
<path fill-rule="evenodd" clip-rule="evenodd" d="M47.8744 23.2101H51.0538V32.2612H49.4053V24.6172H48.9605L45.4663 32.2612H43.5696L40.0755 24.6172H39.6442V32.2612H37.9951V23.2101H41.1755L44.5511 30.6333L47.8744 23.2101Z" fill="white"/>
<path fill-rule="evenodd" clip-rule="evenodd" d="M63.5373 32.2613H61.849L61.0375 29.9695H55.804L54.9928 32.2613H53.3179L56.5108 23.2102H60.3579L63.5373 32.2613ZM57.7017 24.6169L56.3008 28.5762H60.5535L59.1536 24.6169H57.7017Z" fill="white"/>
<path fill-rule="evenodd" clip-rule="evenodd" d="M72.919 23.2101H75.8627V32.2612H74.2145V24.6434H73.7822L68.7453 32.2612H65.8006V23.2101H67.4498V30.8162H67.8946L72.919 23.2101ZM70.8257 22.4938C68.9155 22.4938 67.9601 21.9079 67.9601 20.7358H69.2293C69.2293 21.2309 69.7612 21.478 70.8257 21.478C71.8984 21.478 72.435 21.2309 72.435 20.7358H73.665C73.665 21.3351 73.4357 21.7778 72.9781 22.0646C72.5198 22.3509 71.8025 22.4938 70.8257 22.4938Z" fill="white"/>
<path fill-rule="evenodd" clip-rule="evenodd" d="M85.8594 26.857V23.2102H87.5086V32.2613H85.8594V28.263H80.5341V32.2613H78.8856V23.2102H80.5341V26.857H85.8594Z" fill="white"/>
<path fill-rule="evenodd" clip-rule="evenodd" d="M97.649 23.2101H100.593V32.2612H98.9445V24.6434H98.5122L93.4753 32.2612H90.5306V23.2101H92.1797V30.8162H92.6249L97.649 23.2101Z" fill="white"/>
<path fill-rule="evenodd" clip-rule="evenodd" d="M110.59 26.857V23.2102H112.239V32.2613H110.59V28.263H105.265V32.2613H103.616V23.2102H105.265V26.857H110.59Z" fill="white"/>
<path fill-rule="evenodd" clip-rule="evenodd" d="M115.261 32.2613V23.2102H122.34V24.6169H116.923V32.2613H115.261Z" fill="white"/>
</svg>
